The Devil's Own*1997*[BluRay][1080p][ENG, POL]

General information:
Country: USA
Release: 13 March 1997
Genre: Crime, Drama, Thriller 
Director: Alan J. Pakula
Screenplay: David Aaron Cohen, Vincent Patrick, Kevin Jarre
Original Music: Jane Musky
Cinematography by: Gordon Willis
Duration: 1h 51mn
Language: English, Polish
Subtitles: English, Polish
Rating: 7.2/10 - 2975 votes

Cast:
Harrison Ford  ...  Tom O'Meara  
Brad Pitt  ...  Rory Devaney / Francis Austin McGuire  
Margaret Colin  ...  Sheila O'Meara  
Rubén Blades  ...  Edwin Diaz  
Treat Williams  ...  Billy Burke  
George Hearn  ...  Peter Fitzsimmons  
Mitch Ryan  ...  Chief Jim Kelly (as Mitchell Ryan)  
Natascha McElhone  ...  Megan Doherty  
Paul Ronan  ...  Sean Phelan  
Simon Jones  ...  Harry Sloan  
Julia Stiles  ...  Bridget O'Meara  
Ashley Carin  ...  Morgan O'Meara  
Kelly Singer  ...  Annie O'Meara  
David O'Hara  ...  Martin MacDuf  
David Wilmot  ...  Dessie  

Plot:
A police officer uncovers the real identity of his houseguest, an IRA terrorist in hiding.

Specifications:
General
Format                           : Matroska
Overall bit rate                 : 9 341 Kbps

Video
Format                           : AVC
Format/Info                      : Advanced Video Codec
Format profile                   : High@L4.0
Format settings, CABAC           : Yes
Format settings, ReFrames        : 3 frames
Muxing mode                      : Container profile=Unknown@4.0
Codec ID                         : V_MPEG4/ISO/AVC
Bit rate                         : 8 064 Kbps
Width                            : 1 920 pixels
Height                           : 1 080 pixels
Display aspect ratio             : 16:9
Frame rate                       : 23.976 fps

Audio 1
Format                           : AC-3
Format/Info                      : Audio Coding 3
Mode extension                   : CM (complete main)
Codec ID                         : A_AC3
Bit rate mode                    : Constant
Bit rate                         : 640 Kbps
Channel(s)                       : 6 channels
Channel positions                : Front: L C R, Side: L R, LFE
Sampling rate                    : 48.0 KHz
Stream size                      : 509 MiB (7%)
Title                            : English_A

Audio 2
Format                           : AC-3
Format/Info                      : Audio Coding 3
Mode extension                   : CM (complete main)
Codec ID                         : A_AC3
Bit rate mode                    : Constant
Bit rate                         : 640 Kbps
Channel(s)                       : 6 channels
Channel positions                : Front: L C R, Side: L R, LFE
Sampling rate                    : 48.0 KHz
Stream size                      : 509 MiB (7%)
Title                            : Polish_A
Language                         : Polish

Text 1
Format                           : UTF-8
Codec ID                         : S_TEXT/UTF8
Codec ID/Info                    : UTF-8 Plain Text
Title                            : English

Text 2
Format                           : UTF-8
Codec ID                         : S_TEXT/UTF8
Codec ID/Info                    : UTF-8 Plain Text
Title                            : Polish
